<svg width="300" height="300" viewBox="0 0 300 300" fill="none" xmlns="http://www.w3.org/2000/svg">
<g clip-path="url(#clip0_2_2)">
<path d="M231.462 128.603C227.74 110.02 217.582 93.2864 202.724 81.2604C187.867 69.2345 169.231 62.6624 150 62.6667C117.969 62.6667 90.15 80.57 76.2958 106.77C60.0059 108.504 44.9412 116.106 33.9962 128.116C23.0512 140.125 16.9981 155.695 17 171.833C17 207.967 46.8142 237.333 83.5 237.333H227.583C258.173 237.333 283 212.88 283 182.75C283 153.93 260.279 130.568 231.462 128.603Z" fill="#7088FF"/>
<g clip-path="url(#clip1_2_2)">
<path d="M215.392 152.151C215.392 151.58 215.618 151.033 216.021 150.63C216.423 150.227 216.97 150 217.539 150H234.718C235.288 150 235.834 150.227 236.237 150.63C236.639 151.033 236.866 151.58 236.866 152.151C236.866 152.721 236.639 153.269 236.237 153.672C235.834 154.075 235.288 154.302 234.718 154.302H228.276V214.529H234.718C235.288 214.529 235.834 214.755 236.237 215.159C236.639 215.562 236.866 216.109 236.866 216.68C236.866 217.25 236.639 217.797 236.237 218.201C235.834 218.604 235.288 218.831 234.718 218.831H217.539C216.97 218.831 216.423 218.604 216.021 218.201C215.618 217.797 215.392 217.25 215.392 216.68C215.392 216.109 215.618 215.562 216.021 215.159C216.423 214.755 216.97 214.529 217.539 214.529H223.981V154.302H217.539C216.97 154.302 216.423 154.075 216.021 153.672C215.618 153.269 215.392 152.721 215.392 152.151Z" fill="white"/>
<path fill-rule="evenodd" clip-rule="evenodd" d="M204.483 168.541C204.319 168.15 204.043 167.815 203.69 167.58C203.337 167.345 202.923 167.22 202.499 167.22C202.075 167.22 201.66 167.345 201.307 167.58C200.954 167.815 200.678 168.15 200.515 168.541L189.778 194.353C189.558 194.879 189.557 195.471 189.773 195.999C189.99 196.527 190.407 196.946 190.933 197.166C191.459 197.386 192.05 197.387 192.577 197.17C193.103 196.953 193.522 196.535 193.742 196.009L196.769 188.739H208.237L211.264 196.009C211.484 196.535 211.903 196.953 212.43 197.17C212.956 197.387 213.548 197.386 214.073 197.166C214.599 196.946 215.016 196.527 215.233 195.999C215.449 195.471 215.448 194.879 215.228 194.353L204.491 168.541H204.483ZM202.499 174.951L206.437 184.415H198.578L202.516 174.951H202.499Z" fill="white"/>
<path d="M217.539 162.906C218.109 162.906 218.655 162.679 219.058 162.276C219.46 161.872 219.686 161.325 219.686 160.755C219.686 160.184 219.46 159.637 219.058 159.234C218.655 158.83 218.109 158.604 217.539 158.604H201.648C194.433 158.604 190.825 158.604 188.077 160.011C185.658 161.252 183.69 163.224 182.451 165.646C181.046 168.408 181.046 172.013 181.046 179.24V189.565C181.046 196.792 181.046 200.405 182.451 203.159C183.69 205.581 185.658 207.552 188.077 208.794C190.834 210.201 194.433 210.201 201.648 210.201H217.539C218.109 210.201 218.655 209.974 219.058 209.571C219.46 209.167 219.686 208.62 219.686 208.05C219.686 207.479 219.46 206.932 219.058 206.529C218.655 206.126 218.109 205.899 217.539 205.899H201.648C197.968 205.899 195.464 205.899 193.531 205.736C191.65 205.585 190.684 205.305 190.014 204.961C188.398 204.136 187.084 202.82 186.26 201.201C185.917 200.53 185.637 199.567 185.487 197.678C185.328 195.742 185.324 193.247 185.324 189.547V179.223C185.324 175.536 185.328 173.028 185.487 171.092C185.642 169.208 185.921 168.24 186.26 167.569C187.085 165.951 188.399 164.635 190.014 163.809C190.684 163.465 191.65 163.185 193.531 163.035C195.464 162.88 197.955 162.876 201.648 162.876H217.539V162.906ZM234.718 205.925C234.151 205.936 233.61 206.169 233.212 206.574C232.814 206.979 232.59 207.524 232.588 208.093C232.588 209.289 233.559 210.257 234.753 210.227C238.459 210.141 240.808 209.84 242.741 208.859C245.163 207.622 247.132 205.649 248.367 203.223C249.771 200.461 249.771 196.856 249.771 189.629V179.305C249.771 172.077 249.771 168.464 248.367 165.711C247.132 163.285 245.163 161.312 242.741 160.075C240.813 159.09 238.468 158.793 234.753 158.707C234.47 158.701 234.188 158.752 233.925 158.857C233.663 158.962 233.423 159.118 233.221 159.317C233.02 159.516 232.86 159.753 232.751 160.015C232.642 160.277 232.587 160.557 232.588 160.841C232.588 162.024 233.541 162.979 234.718 163.009C235.672 163.029 236.519 163.071 237.261 163.134C239.142 163.284 240.108 163.564 240.778 163.908C242.393 164.734 243.707 166.05 244.532 167.668C244.875 168.339 245.155 169.303 245.305 171.191C245.464 173.127 245.468 175.622 245.468 179.322V189.646C245.468 193.333 245.464 195.841 245.305 197.777C245.15 199.661 244.871 200.629 244.532 201.3C243.708 202.919 242.394 204.235 240.778 205.06C240.108 205.404 239.142 205.684 237.261 205.834C236.516 205.892 235.669 205.932 234.718 205.955V205.925Z" fill="white"/>
</g>
</g>
<defs>
<clipPath id="clip0_2_2">
<rect width="266" height="262" fill="white" transform="translate(17 19)"/>
</clipPath>
<clipPath id="clip1_2_2">
<rect width="68.7167" height="68.8305" fill="white" transform="translate(181.033 150)"/>
</clipPath>
</defs>
</svg>
